<svg xmlns="http://www.w3.org/2000/svg" version="1.1" xmlns:xlink="http://www.w3.org/1999/xlink" xmlns:svgjs="http://svgjs.dev/svgjs" width="1000" height="1000" viewBox="0 0 1000 1000"><rect width="1000" height="1000" fill="#ffffff"></rect><g transform="matrix(0.7,0,0,0.7,149.57575757575756,374.5264654124231)"><svg viewBox="0 0 396 142" data-background-color="#ed1703" preserveAspectRatio="xMidYMid meet" height="358" width="1000" xmlns="http://www.w3.org/2000/svg" xmlns:xlink="http://www.w3.org/1999/xlink"><g id="tight-bounds" transform="matrix(1,0,0,1,0.2400000000000091,0.09833164978419973)"><svg viewBox="0 0 395.52 141.80333670043157" height="141.80333670043157" width="395.52"><g><svg viewBox="0 0 634.7092792586035 227.55838802992517" height="141.80333670043157" width="395.52"><g transform="matrix(1,0,0,1,239.18927925860348,70.31884488778054)"><svg viewBox="0 0 395.52000000000004 86.92069825436408" height="86.92069825436408" width="395.52000000000004"><g id="textblocktransform"><svg viewBox="0 0 395.52000000000004 86.92069825436408" height="86.92069825436408" width="395.52000000000004" id="textblock"><g><svg viewBox="0 0 395.52000000000004 86.92069825436408" height="86.92069825436408" width="395.52000000000004"><g transform="matrix(1,0,0,1,0,0)"><svg width="395.52000000000004" viewBox="-0.55 -35.25 160.39000000000001 35.25" height="86.92069825436408" data-palette-color="#ffffff"><path d="M38.1 0L30.4 0 27.05-7.8 10.65-7.8 7.3 0-0.55 0 15.65-35.25 21.9-35.25 38.1 0ZM18.85-26.9L13.2-13.7 24.5-13.7 18.85-26.9ZM64.35-12.9L64.35-35.25 71.65-35.25 71.65 0 65.85 0 48.3-22.45 48.3 0 41.05 0 41.05-35.25 46.8-35.25 64.35-12.9ZM86.45 0L78.65 0 78.65-35.25 86.45-35.25 86.45 0ZM111.04-13.7L122.39-35.25 128.44-35.25 128.44 0 121.59 0 121.59-20.9 113.49-5.8 108.49-5.8 100.39-20.7 100.39 0 93.54 0 93.54-35.25 99.69-35.25 111.04-13.7ZM159.84 0L135.54 0 135.54-35.25 159.84-35.25 159.84-29.2 143.14-29.2 143.14-20.95 158.84-20.95 158.84-14.9 143.14-14.9 143.14-6.05 159.84-6.05 159.84 0Z" opacity="1" transform="matrix(1,0,0,1,0,0)" fill="#000000" class="wordmark-text-0" data-fill-palette-color="primary" id="text-0"></path></svg></g></svg></g></svg></g></svg></g><g><svg viewBox="0 0 218.66938849750622 227.55838802992517" height="227.55838802992517" width="218.66938849750622"><g><svg xmlns="http://www.w3.org/2000/svg" data-name="Layer 1" viewBox="2.5 0 123 128" x="0" y="0" height="227.55838802992517" width="218.66938849750622" class="icon-icon-0" data-fill-palette-color="accent" id="icon-0"><path d="M89 26c-4.12 0-7.8 3.99-10.18 10.22A7.925 7.925 0 0 1 83 35c6.37 0 11 7.57 11 18 0 10.06-4.31 17.44-10.33 17.95a4.515 4.515 0 0 1-1.34 0 7.91 7.91 0 0 1-3.51-1.17C81.2 76.01 84.88 80 89 80c7.18 0 13-12.09 13-27S96.18 26 89 26Z" fill="#000000" data-fill-palette-color="accent"></path><path d="M45 39c-3.87 0-7 6.27-7 14a24.619 24.619 0 0 0 1.22 7.89 7.334 7.334 0 0 1 3.85-5.47A2.765 2.765 0 0 0 42.58 57a2.822 2.822 0 0 0 1.54 2.51A5.225 5.225 0 0 0 43 63c0 2.44 1.18 4 2 4s2-1.56 2-4a5.564 5.564 0 0 0-0.92-3.25 2.797 2.797 0 0 0 2.02-3.63 8.032 8.032 0 0 1 2.69 4.74A24.76 24.76 0 0 0 52 53C52 45.27 48.87 39 45 39Z" fill="#000000" data-fill-palette-color="accent"></path><path d="M45.67 70.95a4.515 4.515 0 0 1-1.34 0C38.31 70.44 34 63.06 34 53c0-10.43 4.63-18 11-18a7.925 7.925 0 0 1 4.18 1.22C46.8 29.99 43.12 26 39 26c-7.18 0-13 12.09-13 27s5.82 27 13 27c4.12 0 7.8-3.99 10.18-10.22A7.91 7.91 0 0 1 45.67 70.95Z" fill="#000000" data-fill-palette-color="accent"></path><path d="M81.07 55.42A2.765 2.765 0 0 0 80.58 57a2.822 2.822 0 0 0 1.54 2.51A5.225 5.225 0 0 0 81 63c0 2.44 1.18 4 2 4s2-1.56 2-4a5.564 5.564 0 0 0-0.92-3.25 2.797 2.797 0 0 0 2.02-3.63 8.032 8.032 0 0 1 2.69 4.74A24.76 24.76 0 0 0 90 53c0-7.73-3.13-14-7-14s-7 6.27-7 14a24.619 24.619 0 0 0 1.22 7.89A7.334 7.334 0 0 1 81.07 55.42Z" fill="#000000" data-fill-palette-color="accent"></path><path d="M54.73 102.44c2.68 5.32 5.51 8.11 8.33 8.13h0.03c3.72 0 7.56-4.63 10.55-9.59a19.181 19.181 0 0 1-10.33 3.51A17.893 17.893 0 0 1 54.73 102.44Z" fill="#000000" data-fill-palette-color="accent"></path><path d="M64 0C30.09 0 2.5 28.71 2.5 64S30.09 128 64 128s61.5-28.71 61.5-64S97.91 0 64 0ZM22 53a49.862 49.862 0 0 1 3.63-19.6c-2.06-0.22-3.85-1.56-5.34-3.98a2.004 2.004 0 0 1 3.42-2.09c0.55 0.91 1.42 2.01 2.38 2.1a2.529 2.529 0 0 0 1.63-0.6 8.849 8.849 0 0 1-3.43-3.41 2.004 2.004 0 0 1 3.42-2.09c0.55 0.91 1.42 2.01 2.38 2.1a2.086 2.086 0 0 0 1.04-0.23 8.241 8.241 0 0 1-2.14-5 1.996 1.996 0 1 1 3.96-0.5c0.13 1.05 0.47 2.41 1.3 2.9a1.666 1.666 0 0 0 0.72 0.21A10.697 10.697 0 0 1 39 22c9.69 0 17 13.33 17 31S48.69 84 39 84 22 70.67 22 53ZM87.1 94.98c-0.31 0.01-0.61 0.02-0.9 0.02a13.951 13.951 0 0 1-4.65-0.74c-2.41 5.73-9.43 20.31-18.46 20.31h-0.06c-5.77-0.05-10.6-5.68-14.78-17.21a9.301 9.301 0 0 1-1.16 0.08 8.92 8.92 0 0 1-4.86-1.37 1.998 1.998 0 0 1 2.21-3.33c0.44 0.28 4.22 2.45 8.72-2.51a2 2 0 1 1 2.96 2.69 15.191 15.191 0 0 1-3.7 3.03c1.7 1.58 5.68 4.66 10.83 4.54 4.85-0.12 9.68-3.02 14.37-8.61a8.953 8.953 0 0 1-2.58-4.5 1.998 1.998 0 0 1 3.92-0.78c0.11 0.5 1.26 4.72 7.94 4.38a2.035 2.035 0 0 1 2.1 1.9A2.009 2.009 0 0 1 87.1 94.98ZM89 84c-9.69 0-17-13.33-17-31a49.862 49.862 0 0 1 3.63-19.6c-2.06-0.22-3.85-1.56-5.34-3.98a2.004 2.004 0 0 1 3.42-2.09c0.55 0.91 1.42 2.01 2.38 2.1a2.524 2.524 0 0 0 1.64-0.6 8.803 8.803 0 0 1-3.44-3.41 2.004 2.004 0 0 1 3.42-2.09c0.55 0.91 1.42 2.01 2.38 2.1a2.086 2.086 0 0 0 1.04-0.23 8.241 8.241 0 0 1-2.14-5 1.996 1.996 0 1 1 3.96-0.5c0.13 1.05 0.47 2.41 1.3 2.9a1.666 1.666 0 0 0 0.72 0.21A10.697 10.697 0 0 1 89 22c9.69 0 17 13.33 17 31S98.69 84 89 84Z" fill="#000000" data-fill-palette-color="accent"></path></svg></g></svg></g></svg></g><defs></defs></svg><rect width="395.52" height="141.80333670043157" fill="none" stroke="none" visibility="hidden"></rect></g></svg></g></svg>